<?xml version="1.0" encoding="utf-8" standalone="no"?>
<!DOCTYPE svg PUBLIC "-//W3C//DTD SVG 1.1//EN"
  "http://www.w3.org/Graphics/SVG/1.1/DTD/svg11.dtd">
<!-- Created with matplotlib (https://matplotlib.org/) -->
<svg height="280.512pt" version="1.1" viewBox="0 0 280.512 280.512" width="280.512pt" xmlns="http://www.w3.org/2000/svg" xmlns:xlink="http://www.w3.org/1999/xlink">
 <metadata>
  <rdf:RDF xmlns:cc="http://creativecommons.org/ns#" xmlns:dc="http://purl.org/dc/elements/1.1/" xmlns:rdf="http://www.w3.org/1999/02/22-rdf-syntax-ns#">
   <cc:Work>
    <dc:type rdf:resource="http://purl.org/dc/dcmitype/StillImage"/>
    <dc:date>2021-05-07T15:19:16.966520</dc:date>
    <dc:format>image/svg+xml</dc:format>
    <dc:creator>
     <cc:Agent>
      <dc:title>Matplotlib v3.3.0, https://matplotlib.org/</dc:title>
     </cc:Agent>
    </dc:creator>
   </cc:Work>
  </rdf:RDF>
 </metadata>
 <defs>
  <style type="text/css">*{stroke-linecap:butt;stroke-linejoin:round;}</style>
 </defs>
 <g id="figure_1">
  <g id="patch_1">
   <path d="M 0 280.512 
L 280.512 280.512 
L 280.512 0 
L 0 0 
z
" style="fill:none;"/>
  </g>
  <g id="axes_1">
   <g id="patch_2">
    <path clip-path="url(#p551e0be59f)" d="M 140.256 261.216 
C 172.334967 261.216 203.104381 248.470891 225.787636 225.787636 
C 248.470891 203.104381 261.216 172.334967 261.216 140.256 
C 261.216 108.177033 248.470891 77.407619 225.787636 54.724364 
C 203.104381 32.041109 172.334967 19.296 140.256 19.296 
C 108.177033 19.296 77.407619 32.041109 54.724364 54.724364 
C 32.041109 77.407619 19.296 108.177033 19.296 140.256 
C 19.296 172.334967 32.041109 203.104381 54.724364 225.787636 
C 77.407619 248.470891 108.177033 261.216 140.256 261.216 
z
" style="fill:#35d4ac;stroke:#000000;stroke-linejoin:miter;"/>
   </g>
   <g id="line2d_1">
    <path clip-path="url(#p551e0be59f)" d="M 63.797893 157.666909 
L 82.125166 158.583273 
" style="fill:none;stroke:#6b6b6b;stroke-linecap:square;stroke-width:1.5;"/>
   </g>
   <g id="line2d_2">
    <path clip-path="url(#p551e0be59f)" d="M 63.797893 140.256 
L 82.125166 158.583273 
" style="fill:none;stroke:#c0c0c0;stroke-linecap:square;stroke-width:1.5;"/>
   </g>
   <g id="line2d_3">
    <path clip-path="url(#p551e0be59f)" d="M 63.797893 122.845091 
L 82.125166 158.583273 
" style="fill:none;stroke:#696969;stroke-linecap:square;stroke-width:1.5;"/>
   </g>
   <g id="line2d_4">
    <path clip-path="url(#p551e0be59f)" d="M 63.797893 157.666909 
L 82.125166 140.256 
" style="fill:none;stroke:#717171;stroke-linecap:square;stroke-width:1.5;"/>
   </g>
   <g id="line2d_5">
    <path clip-path="url(#p551e0be59f)" d="M 63.797893 140.256 
L 82.125166 140.256 
" style="fill:none;stroke:#a1a1a1;stroke-linecap:square;stroke-width:1.5;"/>
   </g>
   <g id="line2d_6">
    <path clip-path="url(#p551e0be59f)" d="M 63.797893 122.845091 
L 82.125166 140.256 
" style="fill:none;stroke:#828282;stroke-linecap:square;stroke-width:1.5;"/>
   </g>
   <g id="line2d_7">
    <path clip-path="url(#p551e0be59f)" d="M 63.797893 140.256 
L 82.125166 121.928727 
" style="fill:none;stroke:#bababa;stroke-linecap:square;stroke-width:1.5;"/>
   </g>
   <g id="line2d_8">
    <path clip-path="url(#p551e0be59f)" d="M 63.797893 122.845091 
L 82.125166 121.928727 
" style="fill:none;stroke:#b5b5b5;stroke-linecap:square;stroke-width:1.5;"/>
   </g>
   <g id="line2d_9">
    <path clip-path="url(#p551e0be59f)" d="M 82.125166 158.583273 
L 100.452439 160.416 
" style="fill:none;stroke:#ababab;stroke-linecap:square;stroke-width:1.5;"/>
   </g>
   <g id="line2d_10">
    <path clip-path="url(#p551e0be59f)" d="M 82.125166 140.256 
L 100.452439 160.416 
" style="fill:none;stroke:#757575;stroke-linecap:square;stroke-width:1.5;"/>
   </g>
   <g id="line2d_11">
    <path clip-path="url(#p551e0be59f)" d="M 82.125166 121.928727 
L 100.452439 160.416 
" style="fill:none;stroke:#c0c0c0;stroke-linecap:square;stroke-width:1.5;"/>
   </g>
   <g id="line2d_12">
    <path clip-path="url(#p551e0be59f)" d="M 82.125166 158.583273 
L 100.452439 140.256 
" style="fill:none;stroke:#818181;stroke-linecap:square;stroke-width:1.5;"/>
   </g>
   <g id="line2d_13">
    <path clip-path="url(#p551e0be59f)" d="M 82.125166 140.256 
L 100.452439 140.256 
" style="fill:none;stroke:#b3b3b3;stroke-linecap:square;stroke-width:1.5;"/>
   </g>
   <g id="line2d_14">
    <path clip-path="url(#p551e0be59f)" d="M 82.125166 158.583273 
L 100.452439 120.096 
" style="fill:none;stroke:#848484;stroke-linecap:square;stroke-width:1.5;"/>
   </g>
   <g id="line2d_15">
    <path clip-path="url(#p551e0be59f)" d="M 82.125166 140.256 
L 100.452439 120.096 
" style="fill:none;stroke:#939393;stroke-linecap:square;stroke-width:1.5;"/>
   </g>
   <g id="line2d_16">
    <path clip-path="url(#p551e0be59f)" d="M 82.125166 121.928727 
L 100.452439 120.096 
" style="fill:none;stroke:#6a6a6a;stroke-linecap:square;stroke-width:1.5;"/>
   </g>
   <g id="line2d_17">
    <path clip-path="url(#p551e0be59f)" d="M 100.452439 160.416 
L 118.779711 167.746909 
" style="fill:none;stroke:#c0c0c0;stroke-linecap:square;stroke-width:1.5;"/>
   </g>
   <g id="line2d_18">
    <path clip-path="url(#p551e0be59f)" d="M 100.452439 140.256 
L 118.779711 167.746909 
" style="fill:none;stroke:#969696;stroke-linecap:square;stroke-width:1.5;"/>
   </g>
   <g id="line2d_19">
    <path clip-path="url(#p551e0be59f)" d="M 100.452439 120.096 
L 118.779711 167.746909 
" style="fill:none;stroke:#c9c9c9;stroke-linecap:square;stroke-width:1.5;"/>
   </g>
   <g id="line2d_20">
    <path clip-path="url(#p551e0be59f)" d="M 100.452439 160.416 
L 118.779711 140.256 
" style="fill:none;stroke:#b2b2b2;stroke-linecap:square;stroke-width:1.5;"/>
   </g>
   <g id="line2d_21">
    <path clip-path="url(#p551e0be59f)" d="M 100.452439 140.256 
L 118.779711 140.256 
" style="fill:none;stroke:#676767;stroke-linecap:square;stroke-width:1.5;"/>
   </g>
   <g id="line2d_22">
    <path clip-path="url(#p551e0be59f)" d="M 100.452439 120.096 
L 118.779711 140.256 
" style="fill:none;stroke:#9b9b9b;stroke-linecap:square;stroke-width:1.5;"/>
   </g>
   <g id="line2d_23">
    <path clip-path="url(#p551e0be59f)" d="M 100.452439 160.416 
L 118.779711 112.765091 
" style="fill:none;stroke:#a2a2a2;stroke-linecap:square;stroke-width:1.5;"/>
   </g>
   <g id="line2d_24">
    <path clip-path="url(#p551e0be59f)" d="M 100.452439 120.096 
L 118.779711 112.765091 
" style="fill:none;stroke:#c8c8c8;stroke-linecap:square;stroke-width:1.5;"/>
   </g>
   <g id="line2d_25">
    <path clip-path="url(#p551e0be59f)" d="M 118.779711 167.746909 
L 137.106984 176.910545 
" style="fill:none;stroke:#747474;stroke-linecap:square;stroke-width:1.5;"/>
   </g>
   <g id="line2d_26">
    <path clip-path="url(#p551e0be59f)" d="M 118.779711 140.256 
L 137.106984 176.910545 
" style="fill:none;stroke:#949494;stroke-linecap:square;stroke-width:1.5;"/>
   </g>
   <g id="line2d_27">
    <path clip-path="url(#p551e0be59f)" d="M 118.779711 167.746909 
L 137.106984 140.256 
" style="fill:none;stroke:#8e8e8e;stroke-linecap:square;stroke-width:1.5;"/>
   </g>
   <g id="line2d_28">
    <path clip-path="url(#p551e0be59f)" d="M 118.779711 140.256 
L 137.106984 140.256 
" style="fill:none;stroke:#a7a7a7;stroke-linecap:square;stroke-width:1.5;"/>
   </g>
   <g id="line2d_29">
    <path clip-path="url(#p551e0be59f)" d="M 118.779711 112.765091 
L 137.106984 140.256 
" style="fill:none;stroke:#9d9d9d;stroke-linecap:square;stroke-width:1.5;"/>
   </g>
   <g id="line2d_30">
    <path clip-path="url(#p551e0be59f)" d="M 118.779711 167.746909 
L 137.106984 103.601455 
" style="fill:none;stroke:#949494;stroke-linecap:square;stroke-width:1.5;"/>
   </g>
   <g id="line2d_31">
    <path clip-path="url(#p551e0be59f)" d="M 118.779711 140.256 
L 137.106984 103.601455 
" style="fill:none;stroke:#c6c6c6;stroke-linecap:square;stroke-width:1.5;"/>
   </g>
   <g id="line2d_32">
    <path clip-path="url(#p551e0be59f)" d="M 118.779711 112.765091 
L 137.106984 103.601455 
" style="fill:none;stroke:#757575;stroke-linecap:square;stroke-width:1.5;"/>
   </g>
   <g id="line2d_33">
    <path clip-path="url(#p551e0be59f)" d="M 137.106984 176.910545 
L 155.434257 195.237818 
" style="fill:none;stroke:#c0c0c0;stroke-linecap:square;stroke-width:1.5;"/>
   </g>
   <g id="line2d_34">
    <path clip-path="url(#p551e0be59f)" d="M 137.106984 140.256 
L 155.434257 195.237818 
" style="fill:none;stroke:#959595;stroke-linecap:square;stroke-width:1.5;"/>
   </g>
   <g id="line2d_35">
    <path clip-path="url(#p551e0be59f)" d="M 137.106984 103.601455 
L 155.434257 195.237818 
" style="fill:none;stroke:#747474;stroke-linecap:square;stroke-width:1.5;"/>
   </g>
   <g id="line2d_36">
    <path clip-path="url(#p551e0be59f)" d="M 137.106984 176.910545 
L 155.434257 140.256 
" style="fill:none;stroke:#818181;stroke-linecap:square;stroke-width:1.5;"/>
   </g>
   <g id="line2d_37">
    <path clip-path="url(#p551e0be59f)" d="M 137.106984 140.256 
L 155.434257 140.256 
" style="fill:none;stroke:#888888;stroke-linecap:square;stroke-width:1.5;"/>
   </g>
   <g id="line2d_38">
    <path clip-path="url(#p551e0be59f)" d="M 137.106984 103.601455 
L 155.434257 140.256 
" style="fill:none;stroke:#b0b0b0;stroke-linecap:square;stroke-width:1.5;"/>
   </g>
   <g id="line2d_39">
    <path clip-path="url(#p551e0be59f)" d="M 137.106984 176.910545 
L 155.434257 85.274182 
" style="fill:none;stroke:#bfbfbf;stroke-linecap:square;stroke-width:1.5;"/>
   </g>
   <g id="line2d_40">
    <path clip-path="url(#p551e0be59f)" d="M 137.106984 140.256 
L 155.434257 85.274182 
" style="fill:none;stroke:#737373;stroke-linecap:square;stroke-width:1.5;"/>
   </g>
   <g id="line2d_41">
    <path clip-path="url(#p551e0be59f)" d="M 137.106984 103.601455 
L 155.434257 85.274182 
" style="fill:none;stroke:#c2c2c2;stroke-linecap:square;stroke-width:1.5;"/>
   </g>
   <g id="line2d_42">
    <path clip-path="url(#p551e0be59f)" d="M 155.434257 195.237818 
L 173.76153 231.892364 
" style="fill:none;stroke:#9a9a9a;stroke-linecap:square;stroke-width:1.5;"/>
   </g>
   <g id="line2d_43">
    <path clip-path="url(#p551e0be59f)" d="M 155.434257 140.256 
L 173.76153 231.892364 
" style="fill:none;stroke:#979797;stroke-linecap:square;stroke-width:1.5;"/>
   </g>
   <g id="line2d_44">
    <path clip-path="url(#p551e0be59f)" d="M 155.434257 85.274182 
L 173.76153 231.892364 
" style="fill:none;stroke:#898989;stroke-linecap:square;stroke-width:1.5;"/>
   </g>
   <g id="line2d_45">
    <path clip-path="url(#p551e0be59f)" d="M 155.434257 140.256 
L 173.76153 140.256 
" style="fill:none;stroke:#898989;stroke-linecap:square;stroke-width:1.5;"/>
   </g>
   <g id="line2d_46">
    <path clip-path="url(#p551e0be59f)" d="M 155.434257 195.237818 
L 173.76153 48.619636 
" style="fill:none;stroke:#9d9d9d;stroke-linecap:square;stroke-width:1.5;"/>
   </g>
   <g id="line2d_47">
    <path clip-path="url(#p551e0be59f)" d="M 155.434257 140.256 
L 173.76153 48.619636 
" style="fill:none;stroke:#808080;stroke-linecap:square;stroke-width:1.5;"/>
   </g>
   <g id="line2d_48">
    <path clip-path="url(#p551e0be59f)" d="M 63.797893 157.666909 
L 82.125166 121.928727 
" style="fill:none;stroke:#000000;stroke-linecap:square;stroke-width:3;"/>
   </g>
   <g id="line2d_49">
    <path clip-path="url(#p551e0be59f)" d="M 82.125166 121.928727 
L 100.452439 140.256 
" style="fill:none;stroke:#000000;stroke-linecap:square;stroke-width:3;"/>
   </g>
   <g id="line2d_50">
    <path clip-path="url(#p551e0be59f)" d="M 100.452439 140.256 
L 118.779711 112.765091 
" style="fill:none;stroke:#000000;stroke-linecap:square;stroke-width:3;"/>
   </g>
   <g id="line2d_51">
    <path clip-path="url(#p551e0be59f)" d="M 118.779711 112.765091 
L 137.106984 176.910545 
" style="fill:none;stroke:#000000;stroke-linecap:square;stroke-width:3;"/>
   </g>
   <g id="line2d_52">
    <path clip-path="url(#p551e0be59f)" d="M 155.434257 195.237818 
L 173.76153 140.256 
" style="fill:none;stroke:#000000;stroke-linecap:square;stroke-width:3;"/>
   </g>
   <g id="line2d_53">
    <path clip-path="url(#p551e0be59f)" d="M 155.434257 85.274182 
L 173.76153 140.256 
" style="fill:none;stroke:#000000;stroke-linecap:square;stroke-width:3;"/>
   </g>
   <g id="line2d_54">
    <path clip-path="url(#p551e0be59f)" d="M 155.434257 85.274182 
L 173.76153 48.619636 
" style="fill:none;stroke:#000000;stroke-linecap:square;stroke-width:3;"/>
   </g>
   <g id="patch_3">
    <path clip-path="url(#p551e0be59f)" d="M 63.797893 161.332364 
C 64.769983 161.332364 65.70239 160.946148 66.389761 160.258777 
C 67.077132 159.571405 67.463348 158.638999 67.463348 157.666909 
C 67.463348 156.694819 67.077132 155.762413 66.389761 155.075041 
C 65.70239 154.38767 64.769983 154.001455 63.797893 154.001455 
C 62.825803 154.001455 61.893397 154.38767 61.206025 155.075041 
C 60.518654 155.762413 60.132439 156.694819 60.132439 157.666909 
C 60.132439 158.638999 60.518654 159.571405 61.206025 160.258777 
C 61.893397 160.946148 62.825803 161.332364 63.797893 161.332364 
z
" style="stroke:#000000;stroke-linejoin:miter;stroke-width:3;"/>
   </g>
   <g id="patch_4">
    <path clip-path="url(#p551e0be59f)" d="M 63.797893 143.921455 
C 64.769983 143.921455 65.70239 143.535239 66.389761 142.847868 
C 67.077132 142.160496 67.463348 141.22809 67.463348 140.256 
C 67.463348 139.28391 67.077132 138.351504 66.389761 137.664132 
C 65.70239 136.976761 64.769983 136.590545 63.797893 136.590545 
C 62.825803 136.590545 61.893397 136.976761 61.206025 137.664132 
C 60.518654 138.351504 60.132439 139.28391 60.132439 140.256 
C 60.132439 141.22809 60.518654 142.160496 61.206025 142.847868 
C 61.893397 143.535239 62.825803 143.921455 63.797893 143.921455 
z
" style="stroke:#000000;stroke-linejoin:miter;stroke-width:3;"/>
   </g>
   <g id="patch_5">
    <path clip-path="url(#p551e0be59f)" d="M 63.797893 126.510545 
C 64.769983 126.510545 65.70239 126.12433 66.389761 125.436959 
C 67.077132 124.749587 67.463348 123.817181 67.463348 122.845091 
C 67.463348 121.873001 67.077132 120.940595 66.389761 120.253223 
C 65.70239 119.565852 64.769983 119.179636 63.797893 119.179636 
C 62.825803 119.179636 61.893397 119.565852 61.206025 120.253223 
C 60.518654 120.940595 60.132439 121.873001 60.132439 122.845091 
C 60.132439 123.817181 60.518654 124.749587 61.206025 125.436959 
C 61.893397 126.12433 62.825803 126.510545 63.797893 126.510545 
z
" style="stroke:#000000;stroke-linejoin:miter;stroke-width:3;"/>
   </g>
   <g id="patch_6">
    <path clip-path="url(#p551e0be59f)" d="M 82.125166 162.248727 
C 83.097256 162.248727 84.029662 161.862512 84.717034 161.17514 
C 85.404405 160.487769 85.79062 159.555363 85.79062 158.583273 
C 85.79062 157.611183 85.404405 156.678776 84.717034 155.991405 
C 84.029662 155.304034 83.097256 154.917818 82.125166 154.917818 
C 81.153076 154.917818 80.220669 155.304034 79.533298 155.991405 
C 78.845927 156.678776 78.459711 157.611183 78.459711 158.583273 
C 78.459711 159.555363 78.845927 160.487769 79.533298 161.17514 
C 80.220669 161.862512 81.153076 162.248727 82.125166 162.248727 
z
" style="stroke:#000000;stroke-linejoin:miter;stroke-width:3;"/>
   </g>
   <g id="patch_7">
    <path clip-path="url(#p551e0be59f)" d="M 82.125166 143.921455 
C 83.097256 143.921455 84.029662 143.535239 84.717034 142.847868 
C 85.404405 142.160496 85.79062 141.22809 85.79062 140.256 
C 85.79062 139.28391 85.404405 138.351504 84.717034 137.664132 
C 84.029662 136.976761 83.097256 136.590545 82.125166 136.590545 
C 81.153076 136.590545 80.220669 136.976761 79.533298 137.664132 
C 78.845927 138.351504 78.459711 139.28391 78.459711 140.256 
C 78.459711 141.22809 78.845927 142.160496 79.533298 142.847868 
C 80.220669 143.535239 81.153076 143.921455 82.125166 143.921455 
z
" style="stroke:#000000;stroke-linejoin:miter;stroke-width:3;"/>
   </g>
   <g id="patch_8">
    <path clip-path="url(#p551e0be59f)" d="M 82.125166 125.594182 
C 83.097256 125.594182 84.029662 125.207966 84.717034 124.520595 
C 85.404405 123.833224 85.79062 122.900817 85.79062 121.928727 
C 85.79062 120.956637 85.404405 120.024231 84.717034 119.33686 
C 84.029662 118.649488 83.097256 118.263273 82.125166 118.263273 
C 81.153076 118.263273 80.220669 118.649488 79.533298 119.33686 
C 78.845927 120.024231 78.459711 120.956637 78.459711 121.928727 
C 78.459711 122.900817 78.845927 123.833224 79.533298 124.520595 
C 80.220669 125.207966 81.153076 125.594182 82.125166 125.594182 
z
" style="stroke:#000000;stroke-linejoin:miter;stroke-width:3;"/>
   </g>
   <g id="patch_9">
    <path clip-path="url(#p551e0be59f)" d="M 100.452439 164.081455 
C 101.424529 164.081455 102.356935 163.695239 103.044306 163.007868 
C 103.731678 162.320496 104.117893 161.38809 104.117893 160.416 
C 104.117893 159.44391 103.731678 158.511504 103.044306 157.824132 
C 102.356935 157.136761 101.424529 156.750545 100.452439 156.750545 
C 99.480349 156.750545 98.547942 157.136761 97.860571 157.824132 
C 97.173199 158.511504 96.786984 159.44391 96.786984 160.416 
C 96.786984 161.38809 97.173199 162.320496 97.860571 163.007868 
C 98.547942 163.695239 99.480349 164.081455 100.452439 164.081455 
z
" style="stroke:#000000;stroke-linejoin:miter;stroke-width:3;"/>
   </g>
   <g id="patch_10">
    <path clip-path="url(#p551e0be59f)" d="M 100.452439 143.921455 
C 101.424529 143.921455 102.356935 143.535239 103.044306 142.847868 
C 103.731678 142.160496 104.117893 141.22809 104.117893 140.256 
C 104.117893 139.28391 103.731678 138.351504 103.044306 137.664132 
C 102.356935 136.976761 101.424529 136.590545 100.452439 136.590545 
C 99.480349 136.590545 98.547942 136.976761 97.860571 137.664132 
C 97.173199 138.351504 96.786984 139.28391 96.786984 140.256 
C 96.786984 141.22809 97.173199 142.160496 97.860571 142.847868 
C 98.547942 143.535239 99.480349 143.921455 100.452439 143.921455 
z
" style="stroke:#000000;stroke-linejoin:miter;stroke-width:3;"/>
   </g>
   <g id="patch_11">
    <path clip-path="url(#p551e0be59f)" d="M 100.452439 123.761455 
C 101.424529 123.761455 102.356935 123.375239 103.044306 122.687868 
C 103.731678 122.000496 104.117893 121.06809 104.117893 120.096 
C 104.117893 119.12391 103.731678 118.191504 103.044306 117.504132 
C 102.356935 116.816761 101.424529 116.430545 100.452439 116.430545 
C 99.480349 116.430545 98.547942 116.816761 97.860571 117.504132 
C 97.173199 118.191504 96.786984 119.12391 96.786984 120.096 
C 96.786984 121.06809 97.173199 122.000496 97.860571 122.687868 
C 98.547942 123.375239 99.480349 123.761455 100.452439 123.761455 
z
" style="stroke:#000000;stroke-linejoin:miter;stroke-width:3;"/>
   </g>
   <g id="patch_12">
    <path clip-path="url(#p551e0be59f)" d="M 118.779711 171.412364 
C 119.751801 171.412364 120.684208 171.026148 121.371579 170.338777 
C 122.05895 169.651405 122.445166 168.718999 122.445166 167.746909 
C 122.445166 166.774819 122.05895 165.842413 121.371579 165.155041 
C 120.684208 164.46767 119.751801 164.081455 118.779711 164.081455 
C 117.807621 164.081455 116.875215 164.46767 116.187844 165.155041 
C 115.500472 165.842413 115.114257 166.774819 115.114257 167.746909 
C 115.114257 168.718999 115.500472 169.651405 116.187844 170.338777 
C 116.875215 171.026148 117.807621 171.412364 118.779711 171.412364 
z
" style="stroke:#000000;stroke-linejoin:miter;stroke-width:3;"/>
   </g>
   <g id="patch_13">
    <path clip-path="url(#p551e0be59f)" d="M 118.779711 143.921455 
C 119.751801 143.921455 120.684208 143.535239 121.371579 142.847868 
C 122.05895 142.160496 122.445166 141.22809 122.445166 140.256 
C 122.445166 139.28391 122.05895 138.351504 121.371579 137.664132 
C 120.684208 136.976761 119.751801 136.590545 118.779711 136.590545 
C 117.807621 136.590545 116.875215 136.976761 116.187844 137.664132 
C 115.500472 138.351504 115.114257 139.28391 115.114257 140.256 
C 115.114257 141.22809 115.500472 142.160496 116.187844 142.847868 
C 116.875215 143.535239 117.807621 143.921455 118.779711 143.921455 
z
" style="stroke:#000000;stroke-linejoin:miter;stroke-width:3;"/>
   </g>
   <g id="patch_14">
    <path clip-path="url(#p551e0be59f)" d="M 118.779711 116.430545 
C 119.751801 116.430545 120.684208 116.04433 121.371579 115.356959 
C 122.05895 114.669587 122.445166 113.737181 122.445166 112.765091 
C 122.445166 111.793001 122.05895 110.860595 121.371579 110.173223 
C 120.684208 109.485852 119.751801 109.099636 118.779711 109.099636 
C 117.807621 109.099636 116.875215 109.485852 116.187844 110.173223 
C 115.500472 110.860595 115.114257 111.793001 115.114257 112.765091 
C 115.114257 113.737181 115.500472 114.669587 116.187844 115.356959 
C 116.875215 116.04433 117.807621 116.430545 118.779711 116.430545 
z
" style="stroke:#000000;stroke-linejoin:miter;stroke-width:3;"/>
   </g>
   <g id="patch_15">
    <path clip-path="url(#p551e0be59f)" d="M 137.106984 180.576 
C 138.079074 180.576 139.01148 180.189785 139.698852 179.502413 
C 140.386223 178.815042 140.772439 177.882635 140.772439 176.910545 
C 140.772439 175.938456 140.386223 175.006049 139.698852 174.318678 
C 139.01148 173.631306 138.079074 173.245091 137.106984 173.245091 
C 136.134894 173.245091 135.202488 173.631306 134.515116 174.318678 
C 133.827745 175.006049 133.44153 175.938456 133.44153 176.910545 
C 133.44153 177.882635 133.827745 178.815042 134.515116 179.502413 
C 135.202488 180.189785 136.134894 180.576 137.106984 180.576 
z
" style="stroke:#000000;stroke-linejoin:miter;stroke-width:3;"/>
   </g>
   <g id="patch_16">
    <path clip-path="url(#p551e0be59f)" d="M 137.106984 143.921455 
C 138.079074 143.921455 139.01148 143.535239 139.698852 142.847868 
C 140.386223 142.160496 140.772439 141.22809 140.772439 140.256 
C 140.772439 139.28391 140.386223 138.351504 139.698852 137.664132 
C 139.01148 136.976761 138.079074 136.590545 137.106984 136.590545 
C 136.134894 136.590545 135.202488 136.976761 134.515116 137.664132 
C 133.827745 138.351504 133.44153 139.28391 133.44153 140.256 
C 133.44153 141.22809 133.827745 142.160496 134.515116 142.847868 
C 135.202488 143.535239 136.134894 143.921455 137.106984 143.921455 
z
" style="stroke:#000000;stroke-linejoin:miter;stroke-width:3;"/>
   </g>
   <g id="patch_17">
    <path clip-path="url(#p551e0be59f)" d="M 137.106984 107.266909 
C 138.079074 107.266909 139.01148 106.880694 139.698852 106.193322 
C 140.386223 105.505951 140.772439 104.573544 140.772439 103.601455 
C 140.772439 102.629365 140.386223 101.696958 139.698852 101.009587 
C 139.01148 100.322215 138.079074 99.936 137.106984 99.936 
C 136.134894 99.936 135.202488 100.322215 134.515116 101.009587 
C 133.827745 101.696958 133.44153 102.629365 133.44153 103.601455 
C 133.44153 104.573544 133.827745 105.505951 134.515116 106.193322 
C 135.202488 106.880694 136.134894 107.266909 137.106984 107.266909 
z
" style="stroke:#000000;stroke-linejoin:miter;stroke-width:3;"/>
   </g>
   <g id="patch_18">
    <path clip-path="url(#p551e0be59f)" d="M 155.434257 198.903273 
C 156.406347 198.903273 157.338753 198.517057 158.026125 197.829686 
C 158.713496 197.142315 159.099711 196.209908 159.099711 195.237818 
C 159.099711 194.265728 158.713496 193.333322 158.026125 192.64595 
C 157.338753 191.958579 156.406347 191.572364 155.434257 191.572364 
C 154.462167 191.572364 153.52976 191.958579 152.842389 192.64595 
C 152.155018 193.333322 151.768802 194.265728 151.768802 195.237818 
C 151.768802 196.209908 152.155018 197.142315 152.842389 197.829686 
C 153.52976 198.517057 154.462167 198.903273 155.434257 198.903273 
z
" style="stroke:#000000;stroke-linejoin:miter;stroke-width:3;"/>
   </g>
   <g id="patch_19">
    <path clip-path="url(#p551e0be59f)" d="M 155.434257 143.921455 
C 156.406347 143.921455 157.338753 143.535239 158.026125 142.847868 
C 158.713496 142.160496 159.099711 141.22809 159.099711 140.256 
C 159.099711 139.28391 158.713496 138.351504 158.026125 137.664132 
C 157.338753 136.976761 156.406347 136.590545 155.434257 136.590545 
C 154.462167 136.590545 153.52976 136.976761 152.842389 137.664132 
C 152.155018 138.351504 151.768802 139.28391 151.768802 140.256 
C 151.768802 141.22809 152.155018 142.160496 152.842389 142.847868 
C 153.52976 143.535239 154.462167 143.921455 155.434257 143.921455 
z
" style="stroke:#000000;stroke-linejoin:miter;stroke-width:3;"/>
   </g>
   <g id="patch_20">
    <path clip-path="url(#p551e0be59f)" d="M 155.434257 88.939636 
C 156.406347 88.939636 157.338753 88.553421 158.026125 87.86605 
C 158.713496 87.178678 159.099711 86.246272 159.099711 85.274182 
C 159.099711 84.302092 158.713496 83.369685 158.026125 82.682314 
C 157.338753 81.994943 156.406347 81.608727 155.434257 81.608727 
C 154.462167 81.608727 153.52976 81.994943 152.842389 82.682314 
C 152.155018 83.369685 151.768802 84.302092 151.768802 85.274182 
C 151.768802 86.246272 152.155018 87.178678 152.842389 87.86605 
C 153.52976 88.553421 154.462167 88.939636 155.434257 88.939636 
z
" style="stroke:#000000;stroke-linejoin:miter;stroke-width:3;"/>
   </g>
   <g id="patch_21">
    <path clip-path="url(#p551e0be59f)" d="M 173.76153 235.557818 
C 174.733619 235.557818 175.666026 235.171603 176.353397 234.484231 
C 177.040769 233.79686 177.426984 232.864454 177.426984 231.892364 
C 177.426984 230.920274 177.040769 229.987867 176.353397 229.300496 
C 175.666026 228.613125 174.733619 228.226909 173.76153 228.226909 
C 172.78944 228.226909 171.857033 228.613125 171.169662 229.300496 
C 170.48229 229.987867 170.096075 230.920274 170.096075 231.892364 
C 170.096075 232.864454 170.48229 233.79686 171.169662 234.484231 
C 171.857033 235.171603 172.78944 235.557818 173.76153 235.557818 
z
" style="stroke:#000000;stroke-linejoin:miter;stroke-width:3;"/>
   </g>
   <g id="patch_22">
    <path clip-path="url(#p551e0be59f)" d="M 173.76153 143.921455 
C 174.733619 143.921455 175.666026 143.535239 176.353397 142.847868 
C 177.040769 142.160496 177.426984 141.22809 177.426984 140.256 
C 177.426984 139.28391 177.040769 138.351504 176.353397 137.664132 
C 175.666026 136.976761 174.733619 136.590545 173.76153 136.590545 
C 172.78944 136.590545 171.857033 136.976761 171.169662 137.664132 
C 170.48229 138.351504 170.096075 139.28391 170.096075 140.256 
C 170.096075 141.22809 170.48229 142.160496 171.169662 142.847868 
C 171.857033 143.535239 172.78944 143.921455 173.76153 143.921455 
z
" style="stroke:#000000;stroke-linejoin:miter;stroke-width:3;"/>
   </g>
   <g id="patch_23">
    <path clip-path="url(#p551e0be59f)" d="M 173.76153 52.285091 
C 174.733619 52.285091 175.666026 51.898875 176.353397 51.211504 
C 177.040769 50.524133 177.426984 49.591726 177.426984 48.619636 
C 177.426984 47.647546 177.040769 46.71514 176.353397 46.027769 
C 175.666026 45.340397 174.733619 44.954182 173.76153 44.954182 
C 172.78944 44.954182 171.857033 45.340397 171.169662 46.027769 
C 170.48229 46.71514 170.096075 47.647546 170.096075 48.619636 
C 170.096075 49.591726 170.48229 50.524133 171.169662 51.211504 
C 171.857033 51.898875 172.78944 52.285091 173.76153 52.285091 
z
" style="stroke:#000000;stroke-linejoin:miter;stroke-width:3;"/>
   </g>
  </g>
 </g>
 <defs>
  <clipPath id="p551e0be59f">
   <rect height="266.112" width="266.112" x="7.2" y="7.2"/>
  </clipPath>
 </defs>
</svg>
