<?xml version="1.0" standalone="no"?>
<!DOCTYPE svg PUBLIC "-//W3C//DTD SVG 20010904//EN"
 "http://www.w3.org/TR/2001/REC-SVG-20010904/DTD/svg10.dtd">
<svg version="1.0" xmlns="http://www.w3.org/2000/svg"
 width="700.000000pt" height="700.000000pt" viewBox="0 0 700.000000 700.000000"
 preserveAspectRatio="xMidYMid meet">
<metadata>
Created by potrace 1.14, written by Peter Selinger 2001-2017
</metadata>
<g transform="translate(0.000000,700.000000) scale(0.100000,-0.100000)"
fill="#000000" stroke="none">
<path d="M3215 6519 c-597 -61 -1146 -285 -1615 -657 -127 -101 -368 -343
-468 -469 -341 -432 -546 -908 -635 -1473 -31 -197 -31 -643 0 -840 89 -565
295 -1043 635 -1473 104 -131 344 -371 474 -474 431 -341 909 -547 1474 -636
197 -31 643 -31 840 0 570 89 1040 293 1480 641 124 98 365 340 467 468 341
430 547 909 636 1474 31 197 31 643 0 840 -89 565 -295 1044 -635 1473 -106
133 -346 373 -477 476 -430 340 -911 547 -1466 633 -150 23 -559 33 -710 17z
m710 -47 c552 -86 1029 -293 1455 -632 120 -95 347 -319 437 -430 363 -450
573 -933 660 -1515 25 -170 25 -620 0 -790 -55 -369 -149 -665 -309 -978 -142
-277 -322 -523 -547 -748 -477 -477 -1062 -763 -1761 -861 -146 -20 -603 -17
-755 5 -364 54 -652 145 -965 303 -280 141 -533 325 -761 553 -228 228 -412
481 -553 761 -211 417 -311 813 -323 1280 -8 306 19 549 92 835 99 388 305
797 565 1125 95 120 319 347 430 437 475 383 1011 605 1620 672 145 16 566 6
715 -17z"/>
<path d="M4273 5900 c-18 -10 -40 -31 -49 -45 -22 -34 -22 -103 0 -137 17 -26
16 -27 -156 -372 -167 -333 -174 -346 -201 -346 -38 0 -80 -26 -101 -60 -31
-53 -14 -139 34 -173 19 -13 16 -24 -119 -428 -104 -310 -140 -408 -145 -389
-3 14 -20 92 -36 173 -16 82 -32 152 -35 156 -2 5 7 13 20 19 35 16 65 70 65
115 0 102 -93 162 -184 117 -50 -24 -76 -67 -76 -124 0 -36 -1 -36 -108 -90
l-107 -54 -28 24 c-56 48 -133 41 -182 -18 -35 -41 -41 -75 -23 -125 l15 -42
-106 -159 c-58 -88 -128 -193 -156 -235 -50 -75 -50 -75 -100 -80 -45 -3 -53
-1 -84 29 l-34 32 43 91 c41 87 45 91 75 91 99 0 165 84 136 173 -40 120 -223
117 -248 -4 -5 -25 -10 -28 -67 -34 -33 -3 -77 -8 -96 -11 -33 -5 -38 -2 -61
33 -34 53 -92 73 -151 53 -54 -19 -88 -67 -88 -125 0 -22 7 -50 15 -61 21 -28
19 -39 -26 -121 -34 -61 -43 -72 -55 -62 -25 20 -42 -6 -20 -30 17 -18 16 -21
-7 -68 l-25 -48 -18 38 c-10 20 -22 37 -26 37 -20 0 -19 -35 0 -76 l22 -44
-83 -160 c-71 -138 -85 -160 -106 -160 -38 0 -99 -40 -117 -78 -33 -69 0 -147
75 -179 59 -25 136 7 161 68 l13 31 60 -6 c33 -3 76 -6 96 -6 32 0 38 -4 52
-39 67 -159 300 -56 239 105 -10 25 -7 32 42 81 60 60 52 63 139 -38 l48 -55
-14 -41 c-25 -72 8 -143 79 -167 97 -33 191 48 172 148 -14 72 -117 128 -177
96 -22 -12 -27 -9 -91 60 -38 41 -68 76 -68 80 0 3 29 34 64 69 58 58 65 62
86 51 13 -7 43 -10 72 -8 44 5 51 2 65 -19 11 -16 19 -21 26 -14 7 7 5 18 -6
35 -12 17 -13 27 -6 32 6 3 17 22 25 40 9 22 21 34 33 34 10 0 22 7 25 16 9
23 8 24 -19 24 -19 0 -28 8 -38 33 -12 29 -12 35 7 64 138 212 298 443 306
443 16 0 25 -27 109 -320 l81 -285 -21 -75 c-12 -41 -23 -77 -25 -79 -2 -2
-13 17 -25 42 l-22 45 22 23 c80 86 19 219 -101 219 -45 0 -91 -30 -112 -74
-16 -35 -19 -36 -70 -36 -50 0 -66 -9 -66 -36 0 -2 27 -4 60 -4 58 0 59 -1 76
-36 22 -46 67 -74 121 -74 42 0 43 -1 73 -60 l31 -61 -42 -149 -42 -148 -34
-7 c-19 -3 -41 -9 -49 -12 -8 -3 -14 0 -14 6 0 6 -38 68 -85 138 -59 89 -86
122 -90 111 -4 -10 24 -62 79 -143 l85 -128 -20 -27 c-32 -43 -35 -99 -7 -140
50 -73 133 -89 195 -36 l28 24 106 -53 106 -54 5 -51 c17 -172 258 -164 258 8
0 25 -9 52 -25 76 l-25 37 52 102 51 102 110 -328 c109 -328 109 -329 88 -343
-49 -35 -66 -120 -35 -174 23 -39 65 -60 117 -60 104 0 162 116 102 205 l-26
37 47 142 c39 117 49 137 55 116 4 -14 58 -278 120 -588 l112 -563 -36 -30
c-79 -65 -66 -178 25 -225 87 -45 202 43 184 141 -9 44 -63 105 -94 105 -12 0
-24 6 -29 13 -4 6 -48 340 -98 741 l-92 729 91 273 c79 239 93 274 111 274 51
0 115 72 115 129 0 61 -62 131 -115 131 -18 0 -36 48 -148 388 l-129 387 117
575 c64 316 121 596 126 622 10 44 14 48 49 58 78 21 120 112 84 179 -39 73
-118 100 -181 61z m-112 -890 l-107 -535 -48 141 -47 142 26 37 c30 45 33 97
6 140 l-18 30 146 292 c80 161 146 291 147 290 1 -1 -46 -243 -105 -537z
m-281 -282 c0 -7 18 -155 40 -328 22 -173 40 -331 40 -350 1 -19 -16 -121 -37
-227 l-37 -191 -37 -6 c-38 -6 -99 -62 -99 -91 0 -12 -14 -15 -60 -15 l-59 0
-10 -37 c-16 -57 -14 -95 16 -241 l26 -134 -28 -56 -28 -57 -25 75 c-24 69
-27 72 -32 45 -4 -18 1 -52 12 -84 10 -30 18 -62 18 -72 0 -26 -112 -249 -125
-249 -5 0 -15 4 -21 8 -9 6 -154 497 -154 524 0 6 19 40 41 75 28 43 47 62 56
58 8 -3 27 -5 43 -5 27 0 30 -4 62 -101 30 -92 33 -98 39 -69 5 22 -1 55 -17
103 l-24 70 35 38 c19 22 35 46 35 54 0 8 6 15 14 15 14 0 36 69 36 116 0 15
-10 77 -22 138 l-21 111 149 448 c91 274 154 447 161 447 7 0 13 -6 13 -12z
m129 -481 c-7 -37 -15 -70 -19 -72 -5 -3 -19 94 -46 330 -3 26 10 0 36 -75 40
-114 40 -116 29 -183z m-645 50 c18 -13 18 -15 1 -47 -15 -29 -91 -280 -155
-515 -38 -138 -36 -132 -43 -110 -9 28 -103 362 -116 410 -9 34 -8 42 9 60 25
26 42 80 34 109 -4 18 10 28 107 77 96 47 115 54 128 43 9 -8 24 -20 35 -27z
m66 -20 c0 -2 18 -93 40 -202 22 -109 40 -210 40 -224 0 -14 -14 -69 -32 -123
-31 -95 -33 -98 -63 -98 -42 0 -76 -20 -102 -59 -29 -42 -30 -95 -3 -139 l21
-34 -32 -50 c-22 -35 -34 -46 -39 -36 -4 7 -22 63 -39 125 l-32 112 27 88 c14
48 36 126 49 173 25 91 123 437 130 458 4 10 35 18 35 9z m724 -363 c101 -303
102 -309 84 -329 -10 -10 -21 -30 -24 -42 -6 -21 -12 -23 -74 -23 -77 0 -74 4
-85 -92 -4 -39 2 -129 21 -274 l27 -217 -29 -89 c-31 -99 -33 -98 -55 21 -12
67 -14 72 -21 45 -6 -19 -3 -62 8 -125 l17 -96 -73 -219 c-40 -120 -75 -214
-77 -209 -9 29 -163 813 -163 832 0 13 28 79 62 148 57 114 65 125 89 125 31
0 26 16 76 -239 25 -129 29 -140 35 -105 5 27 -2 86 -23 192 -17 85 -29 155
-27 156 2 1 15 10 30 19 15 10 35 32 44 49 9 18 22 38 29 45 26 25 27 159 2
349 l-23 180 20 107 c11 59 21 105 23 103 2 -2 50 -142 107 -312z m-1764 26
c12 -29 10 -32 -46 -94 l-59 -64 -58 57 c-50 49 -57 61 -52 84 6 23 12 26 73
32 37 3 74 8 82 9 38 9 48 4 60 -24z m0 -140 l-42 -83 -20 21 -21 20 59 66
c32 36 60 64 62 62 2 -2 -15 -41 -38 -86z m1614 -72 c10 -84 20 -165 23 -180
8 -39 -10 -35 -30 8 -10 19 -30 42 -45 51 l-28 16 25 129 c14 70 28 128 31
128 3 0 14 -69 24 -152z m-1835 50 l53 -57 -20 -28 c-11 -15 -34 -41 -50 -56
-25 -24 -33 -27 -50 -18 -26 14 -72 14 -107 1 -18 -7 -31 -6 -44 2 -18 11 -17
17 30 109 47 95 50 98 86 102 21 2 40 3 43 3 3 -1 29 -27 59 -58z m1385 -120
c9 -51 20 -103 23 -115 4 -16 1 -23 -10 -23 -8 0 -17 10 -21 23 -3 12 -18 35
-34 51 l-30 28 21 64 c12 35 24 64 27 64 3 0 14 -42 24 -92z m-1271 4 l27 -28
-60 -128 c-59 -124 -62 -128 -80 -111 -18 16 -18 20 -5 46 19 36 19 82 1 118
-14 27 -13 29 30 79 25 29 49 52 53 52 4 0 19 -13 34 -28z m-356 -122 c-8 -28
-8 -52 -1 -80 10 -34 9 -42 -8 -56 -21 -20 -19 -21 -47 33 l-21 43 30 61 c24
47 34 58 44 50 10 -9 11 -20 3 -51z m439 39 c18 -17 21 -26 13 -51 -5 -20 -4
-43 6 -72 l15 -41 -66 -65 -65 -65 -25 30 c-13 17 -24 33 -24 36 0 11 113 249
119 249 2 0 15 -9 27 -21z m1384 -113 c0 -8 12 -29 27 -46 l26 -32 -53 -109
c-30 -59 -55 -107 -57 -105 -3 2 -63 293 -63 303 0 1 27 3 60 3 45 0 60 -4 60
-14z m464 -9 c3 -12 14 -31 24 -42 18 -20 17 -24 -44 -205 -47 -140 -63 -179
-67 -160 -4 14 -16 104 -27 200 -12 96 -23 187 -26 203 l-6 27 70 0 c64 0 70
-2 76 -23z m-2364 -66 l20 -39 -78 -70 -77 -70 55 109 c30 60 56 109 57 109 2
0 12 -18 23 -39z m200 -16 c25 1 52 4 61 8 12 6 22 0 36 -20 l20 -28 -38 -82
-38 -83 -43 0 -44 0 -42 86 -43 87 22 23 c17 18 28 22 43 17 12 -5 41 -8 66
-8z m1129 -91 c22 -78 22 -83 6 -108 -10 -14 -20 -26 -24 -26 -9 0 -51 86 -51
105 0 32 34 136 40 123 4 -7 17 -50 29 -94z m-1249 -55 l41 -80 -25 -29 c-13
-16 -26 -34 -28 -41 -3 -8 -31 -9 -99 -4 -93 7 -96 8 -106 36 -11 27 -8 32 76
113 47 47 89 86 93 86 4 0 26 -36 48 -81z m295 51 c18 -20 18 -22 -35 -75 -30
-30 -58 -55 -62 -55 -4 0 9 34 29 75 21 41 40 75 44 75 3 0 14 -9 24 -20z
m859 -255 c-32 -47 -59 -83 -61 -81 -5 4 4 38 49 191 l20 70 24 -48 24 -47
-56 -85z m200 -115 c3 -14 -19 24 -49 83 l-56 108 18 29 17 30 33 -113 c17
-61 34 -123 37 -137z m-30 -28 c87 -174 93 -190 78 -204 -15 -13 -28 -9 -128
40 l-111 55 0 44 c0 28 -7 53 -20 71 l-20 27 51 77 c28 43 52 78 53 78 2 0 45
-85 97 -188z m481 -131 c30 -151 55 -280 54 -285 -1 -17 -159 457 -159 477 0
22 42 106 47 92 1 -5 28 -134 58 -284z m455 -511 c33 -266 59 -487 58 -492 -2
-5 -41 182 -88 416 l-84 425 23 71 c12 39 24 70 27 68 2 -2 31 -222 64 -488z"/>
<path d="M1545 4056 c-105 -48 -113 -180 -14 -236 29 -15 51 -21 73 -17 32 5
33 4 71 -74 35 -71 41 -78 54 -64 14 13 11 23 -23 93 l-38 77 55 -52 c58 -55
71 -61 83 -41 5 7 -14 31 -50 64 -51 45 -57 54 -47 72 15 29 14 88 -3 121 -29
55 -106 82 -161 57z"/>
<path d="M1523 3611 c-119 -75 -55 -254 85 -238 78 9 131 86 111 162 -21 79
-127 120 -196 76z"/>
<path d="M2640 3288 c0 -7 9 -26 20 -43 15 -24 20 -26 25 -13 4 9 -1 28 -10
42 -18 28 -35 34 -35 14z"/>
</g>
</svg>
